<svg width="1033" height="213" viewBox="0 0 1033 213" fill="none" xmlns="http://www.w3.org/2000/svg">
<g filter="url(#filter0_d_303_614)">
<rect x="4" width="1025" height="205" fill="#2B2D2C"/>
<path d="M491.56 167H500.064V163.116H495.59V132.884H500.138V129H491.56V167Z" fill="#DB394C"/>
<path d="M506.018 129V132.884H510.529V163.116H505.981V167H514.56V129H506.018Z" fill="#DB394C"/>
<path d="M505.093 139.932H501.026V155.788H505.093V139.932Z" fill="#DB394C"/>
<path d="M148.624 101.062C168.554 83.5327 166.323 44.969 144.11 30.1725C134.17 22.9805 119.767 19.0365 107.519 19.1396C101.434 19.6293 95.7028 22.4134 90.7074 26.048C84.6217 30.5592 79.7024 35.9209 72.9573 40.2774C65.1219 44.969 54.1422 50.4597 44.0754 49.2223C37.3303 47.3921 37.1782 40.8703 37.4825 34.9929C37.4825 34.9414 37.4825 34.8641 37.4825 34.8125C37.2796 34.8125 37.1275 34.8641 36.9246 34.8641C34.4903 34.8641 32.4871 34.1681 30.8896 33.0854C30.8135 33.7041 30.7374 34.3485 30.7374 34.9929C29.6724 46.129 34.2367 55.873 46.2814 56.3628C61.9776 56.5175 77.0145 46.7734 88.0956 36.9005C97.5793 27.9556 106.125 23.3156 119.006 26.7956C132.522 29.1929 144.871 36.1014 151.311 48.6294C160.034 65.849 155.216 92.9158 136.477 101.01C155.216 109.079 160.034 136.171 151.311 153.391C144.871 165.919 132.395 172.518 118.879 174.915C105.947 178.395 97.63 174.09 88.0956 165.12C77.0145 155.247 61.9523 145.503 46.2814 145.657C34.2367 146.199 29.6724 155.865 30.7374 167.053C30.7374 173.523 34.5917 179.117 40.0943 181.54C40.0182 180.354 40.0943 179.194 40.3986 178.112C40.7536 176.849 41.2861 175.766 41.9454 174.812C39.2575 173.265 37.4317 170.378 37.4317 167.053C37.1275 161.201 37.2542 154.654 44.0246 152.824C54.0661 151.586 65.0459 157.077 72.9066 161.768C79.6517 166.125 84.571 171.513 90.6567 175.998C95.6521 179.633 101.383 182.417 107.469 182.906C119.716 183.009 134.119 179.065 144.059 171.873C166.272 157.103 168.529 118.539 148.573 100.984L148.624 101.062Z" fill="#DC394C"/>
<path d="M114.366 59.0179C120.604 62.6268 119.59 76.882 114.848 80.1815C114.62 80.362 114.341 80.4909 114.087 80.6455C115.685 82.3727 116.724 84.5638 117.206 86.8322C122.43 83.5069 125.523 77.81 125.397 69.0713C125.955 44.8143 104.35 49.4801 87.7157 49.2739C86.3464 49.2739 84.9771 49.6348 83.8107 50.4081C80.6157 52.5477 76.9135 54.3521 73.2114 56.0535C82.7711 56.9557 106.227 53.5015 114.341 59.0179H114.366Z" fill="#DC394C"/>
<g opacity="0.2">
<path d="M114.366 59.0179C120.604 62.6268 119.59 76.882 114.848 80.1815C114.62 80.362 114.341 80.4909 114.087 80.6455C115.685 82.3727 116.724 84.5638 117.206 86.8322C122.43 83.5069 125.523 77.81 125.397 69.0713C125.955 44.8143 104.35 49.4801 87.7157 49.2739C86.3464 49.2739 84.9771 49.6348 83.8107 50.4081C80.6157 52.5477 76.9135 54.3521 73.2114 56.0535C82.7711 56.9557 106.227 53.5015 114.341 59.0179H114.366Z" fill="url(#paint0_linear_303_614)"/>
</g>
<path d="M37.7352 41.4374C37.4056 39.3236 37.4563 37.0294 37.5577 34.8382C37.5577 29.8889 41.5135 25.8676 46.3821 25.8676H79.5241C80.158 25.8676 80.7412 25.6356 81.223 25.2231C83.6827 23.1093 86.8523 20.7893 89.8445 19.0364H46.4074C37.8367 19.0364 30.8634 26.1253 30.8634 34.8382C30.483 38.7823 30.8381 42.5716 31.9538 45.8196C33.3991 43.7574 35.4277 42.1076 37.7606 41.4632L37.7352 41.4374Z" fill="url(#paint1_linear_303_614)"/>
<path d="M37.7352 160.402C37.4056 162.516 37.4563 164.81 37.5577 167.001C37.5577 171.951 41.5135 175.972 46.3821 175.972H79.5241C80.158 175.972 80.7412 176.204 81.223 176.617C83.6827 178.73 86.8523 181.05 89.8445 182.803H46.4074C37.8367 182.803 30.8634 175.714 30.8634 167.001C30.483 163.057 30.8381 159.268 31.9538 156.02C33.3991 158.082 35.4277 159.732 37.7606 160.376L37.7352 160.402Z" fill="url(#paint2_linear_303_614)"/>
<path d="M102.042 111.167C102.042 111.167 35.8849 111.167 30.5852 111.167V117.998H102.042C107.494 117.998 111.779 119.183 114.848 121.555C119.615 124.88 120.604 139.11 114.366 142.719C106.48 148.209 82.0859 144.781 72.8051 145.683C76.5833 147.436 80.3616 149.292 83.6327 151.483C84.5962 152.128 85.712 152.488 86.853 152.463C103.437 152.179 125.929 157.129 125.396 132.665C125.599 117.276 115.938 111.321 102.042 111.167Z" fill="url(#paint3_linear_303_614)"/>
<path d="M87.7147 49.2997C86.3454 49.2997 84.9761 49.6606 83.8097 50.4339C80.6146 52.5735 76.9125 54.3779 73.2103 56.0793C82.77 56.9815 106.226 53.5273 114.34 59.0437C120.578 62.6526 119.563 76.9078 114.822 80.2074C111.753 82.5531 107.468 83.7647 102.016 83.7647H30.5593V90.5958H102.016C115.912 90.4669 125.573 84.4865 125.37 69.0971C125.928 44.8401 104.324 49.5059 87.6893 49.2997H87.7147Z" fill="url(#paint4_linear_303_614)"/>
<path d="M121.263 126.427C120.198 126.608 119.133 126.814 118.068 127.072C119.539 132.614 118.702 140.218 114.391 142.744C106.505 148.235 82.1114 144.807 72.8306 145.709C76.6088 147.462 80.3871 149.318 83.6582 151.509C84.6217 152.153 85.7375 152.514 86.8785 152.489C103.462 152.205 125.954 157.154 125.422 132.691C125.447 130.062 125.168 127.768 124.661 125.654C123.596 126.04 122.48 126.298 121.288 126.427H121.263Z" fill="url(#paint5_linear_303_614)"/>
<g filter="url(#filter1_d_303_614)">
<rect x="195.06" y="32.5" width="803.841" height="76.1916" stroke="#2B2D2C" shape-rendering="crispEdges"/>
<path fill-rule="evenodd" clip-rule="evenodd" d="M549.696 108.274V32.9176H582.786C588.268 32.9176 593.264 33.9167 597.661 36.0512C602.078 38.1951 605.594 41.3351 608.098 45.4472C610.637 49.6163 611.813 54.4753 611.813 59.8467C611.813 65.2685 610.6 70.1409 607.941 74.2414C606.304 76.7879 604.248 78.9243 601.812 80.6522L616.857 108.274H587.652L576.157 86.6632V108.274H549.696ZM590.127 104.154H609.921L596.291 79.1301C597.57 78.5163 598.748 77.8075 599.824 77.0036C601.677 75.6192 603.23 73.9531 604.481 72.005C606.622 68.706 607.693 64.6532 607.693 59.8467C607.693 55.0838 606.655 50.9983 604.579 47.59C602.504 44.1817 599.598 41.5709 595.862 39.7576C592.126 37.9442 587.768 37.0375 582.786 37.0375H553.816V104.154H572.037V82.0004H578.343L590.127 104.154ZM572.037 67.843H578.46C580.601 67.843 582.426 67.5808 583.933 67.0565C585.463 66.5103 586.631 65.6473 587.44 64.4675C588.27 63.2877 588.685 61.7474 588.685 59.8467C588.685 57.9241 588.27 56.3619 587.44 55.1603C586.631 53.9368 585.463 53.0411 583.933 52.473C582.426 51.8831 580.601 51.5882 578.46 51.5882H572.037V67.843ZM576.157 55.7081V63.7231H578.46C580.277 63.7231 581.612 63.499 582.563 63.171C583.38 62.8765 583.79 62.5051 584.041 62.1388L584.056 62.1176L584.071 62.0965C584.278 61.8011 584.565 61.1655 584.565 59.8467C584.565 58.4992 584.275 57.8278 584.05 57.5022L584.026 57.467L584.002 57.4314C583.73 57.019 583.305 56.6347 582.499 56.3351L582.465 56.3227L582.432 56.3096C581.53 55.9566 580.244 55.7081 578.46 55.7081H576.157Z" fill="#FAFAFA"/>
<path fill-rule="evenodd" clip-rule="evenodd" d="M475.677 108.274V32.9176H532.288V55.8391H502.138V59.1351H529.797V82.0566H502.138V85.3525H532.157V108.274H475.677ZM498.018 89.4724V77.9367H525.677V63.2549H498.018V51.7193H528.168V37.0375H479.797V104.154H528.037V89.4724H498.018Z" fill="#FAFAFA"/>
<path fill-rule="evenodd" clip-rule="evenodd" d="M406.344 108.274V32.9176H432.805V85.3525H459.94V108.274H406.344ZM428.685 89.4724V37.0375H410.464V104.154H455.82V89.4724H428.685Z" fill="#FAFAFA"/>
<path fill-rule="evenodd" clip-rule="evenodd" d="M389.337 32.9176V108.274H362.876V32.9176H389.337ZM385.217 37.0375H366.996V104.154H385.217V37.0375Z" fill="#FAFAFA"/>
<path fill-rule="evenodd" clip-rule="evenodd" d="M341.181 91.5344L341.177 91.5409C337.907 97.2938 333.433 101.742 327.775 104.771L327.768 104.775L327.762 104.778C322.179 107.742 316.001 109.192 309.313 109.192C302.581 109.192 296.376 107.731 290.786 104.738L290.776 104.733L290.767 104.728C285.138 101.676 280.682 97.2211 277.416 91.4754L277.411 91.4663L277.406 91.4573C274.097 85.5658 272.552 78.5492 272.552 70.5958C272.552 62.6044 274.095 55.5718 277.41 49.6951L277.413 49.69C280.679 43.9181 285.143 39.4637 290.789 36.4517C296.378 33.46 302.582 32 309.313 32C316.004 32 322.185 33.4617 327.769 36.4501C333.435 39.4604 337.911 43.9139 341.18 49.6886C344.519 55.5668 346.074 62.602 346.074 70.5958C346.074 78.5928 344.518 85.6372 341.181 91.5344ZM325.83 40.0853C320.892 37.4417 315.387 36.1199 309.313 36.1199C303.196 36.1199 297.668 37.4417 292.731 40.0853C287.815 42.707 283.904 46.585 280.998 51.7193C278.114 56.8317 276.672 63.1239 276.672 70.5958C276.672 78.0241 278.114 84.3054 280.998 89.4396C283.904 94.552 287.815 98.4409 292.731 101.106C297.668 103.75 303.196 105.072 309.313 105.072C315.387 105.072 320.892 103.761 325.83 101.139C330.768 98.4956 334.689 94.6176 337.595 89.5052C340.501 84.3709 341.954 78.0678 341.954 70.5958C341.954 63.1239 340.501 56.8317 337.595 51.7193C334.689 46.585 330.768 42.707 325.83 40.0853ZM317.756 61.9115L317.749 61.8931C316.943 59.7622 315.851 58.4077 314.59 57.5445L314.569 57.5305L314.549 57.5161C313.319 56.6524 311.655 56.1013 309.313 56.1013C306.973 56.1013 305.289 56.6519 304.028 57.5279L304.02 57.533C302.77 58.3979 301.668 59.7627 300.838 61.9119C300.021 64.0587 299.538 66.9113 299.538 70.5958C299.538 74.2732 300.019 77.1389 300.838 79.3129C301.662 81.4232 302.759 82.7991 304.024 83.6938C305.285 84.5503 306.973 85.0903 309.313 85.0903C311.665 85.0903 313.337 84.545 314.569 83.6941C315.854 82.8 316.95 81.4286 317.753 79.3212L317.756 79.313L317.759 79.3048C318.595 77.1376 319.088 74.2759 319.088 70.5958C319.088 66.9141 318.594 64.0686 317.763 61.9298L317.756 61.9115ZM316.916 87.08C314.862 88.5002 312.328 89.2102 309.313 89.2102C306.298 89.2102 303.753 88.5002 301.677 87.08C299.624 85.6381 298.061 83.5407 296.991 80.7879C295.942 78.0132 295.418 74.6158 295.418 70.5958C295.418 66.5758 295.942 63.1894 296.991 60.4366C298.061 57.6619 299.624 55.5645 301.677 54.1444C303.753 52.7024 306.298 51.9814 309.313 51.9814C312.328 51.9814 314.862 52.7024 316.916 54.1444C318.992 55.5645 320.554 57.6619 321.602 60.4366C322.673 63.1894 323.208 66.5758 323.208 70.5958C323.208 74.6158 322.673 78.0132 321.602 80.7879C320.554 83.5407 318.992 85.6381 316.916 87.08Z" fill="#FAFAFA"/>
<path fill-rule="evenodd" clip-rule="evenodd" d="M194.56 108.274V32.9176H227.781C233.232 32.9176 238.075 33.6472 242.173 35.2702C246.242 36.8731 249.59 39.253 251.916 42.5486C254.255 45.8309 255.365 49.6469 255.365 53.8167C255.365 56.9112 254.675 59.8338 253.244 62.5031C252.104 64.6623 250.581 66.5265 248.711 68.0855C251.447 69.7483 253.658 71.9966 255.309 74.7798C257.146 77.8531 257.987 81.3596 257.987 85.1465C257.987 89.576 256.814 93.6497 254.409 97.2336C252.037 100.802 248.706 103.516 244.595 105.431C240.412 107.379 235.595 108.274 230.271 108.274H194.56ZM244.445 66.1032C244.662 65.967 244.875 65.8259 245.084 65.68C247.029 64.3036 248.536 62.5995 249.607 60.5676C250.699 58.5358 251.245 56.2855 251.245 53.8167C251.245 50.4084 250.35 47.448 248.558 44.9355C246.788 42.423 244.156 40.4785 240.66 39.1021C237.186 37.7257 232.893 37.0375 227.781 37.0375H198.679V104.154H230.271C235.143 104.154 239.338 103.335 242.856 101.696C246.373 100.058 249.082 97.8073 250.983 94.9453C252.906 92.0832 253.867 88.8169 253.867 85.1465C253.867 81.9786 253.168 79.2257 251.77 76.888C250.371 74.5284 248.493 72.6823 246.133 71.3496C245.682 71.0907 245.222 70.8546 244.752 70.6413C242.8 69.7553 240.683 69.2613 238.401 69.1594C238.357 69.1574 238.312 69.1556 238.268 69.1539V68.4984C238.276 68.4967 238.284 68.4951 238.293 68.4934C240.602 68.0248 242.653 67.2281 244.445 66.1032ZM228.809 80.0833L228.797 80.0783C228.133 79.7907 227.138 79.5659 225.683 79.5659H221.02V85.4836H225.421C228.065 85.4836 229.319 84.9764 229.832 84.6027C230.143 84.3635 230.477 83.9794 230.477 82.7869C230.477 81.8557 230.271 81.3515 230.077 81.0582C229.849 80.7117 229.491 80.3743 228.82 80.0881L228.809 80.0833ZM232.303 87.8993C230.774 89.0354 228.48 89.6035 225.421 89.6035H216.901V75.446H225.683C227.54 75.446 229.124 75.7301 230.435 76.2981C231.768 76.8662 232.795 77.6964 233.516 78.7888C234.237 79.8812 234.597 81.2139 234.597 82.7869C234.597 85.0373 233.833 86.7414 232.303 87.8993ZM228.114 58.8396L228.119 58.8327C228.228 58.6826 228.38 58.3975 228.38 57.7493C228.38 56.7949 228.117 56.5269 227.831 56.3166L227.815 56.305L227.799 56.2933C227.174 55.8244 226.219 55.4459 224.635 55.4459H221.02V60.0527H224.372C225.538 60.0527 226.399 59.869 227.035 59.6078C227.65 59.3551 227.943 59.0772 228.109 58.8465L228.114 58.8396ZM224.372 64.1726C225.967 64.1726 227.377 63.9213 228.6 63.4188C229.824 62.9163 230.774 62.1953 231.451 61.2559C232.15 60.2946 232.5 59.1257 232.5 57.7493C232.5 55.6737 231.757 54.0898 230.271 52.9974C228.786 51.8831 226.907 51.326 224.635 51.326H216.901V64.1726H224.372Z" fill="#FAFAFA"/>
<path d="M979.577 55.6468C979.388 53.2869 978.503 51.4461 976.922 50.1245C975.365 48.8029 972.993 48.1421 969.807 48.1421C967.777 48.1421 966.114 48.3899 964.816 48.8855C963.541 49.3575 962.597 50.0065 961.984 50.8325C961.37 51.6585 961.051 52.6025 961.028 53.6645C960.981 54.5377 961.134 55.3282 961.488 56.0362C961.866 56.7206 962.456 57.346 963.258 57.9124C964.06 58.4552 965.087 58.9508 966.338 59.3992C967.589 59.8476 969.075 60.2488 970.798 60.6028L976.745 61.8771C980.757 62.7267 984.191 63.8477 987.046 65.2401C989.902 66.6325 992.238 68.2726 994.056 70.1606C995.873 72.025 997.206 74.1253 998.056 76.4617C998.929 78.7981 999.377 81.3468 999.401 84.108C999.377 88.8751 998.185 92.9107 995.826 96.2146C993.466 99.5185 990.091 102.032 985.701 103.755C981.335 105.477 976.084 106.339 969.948 106.339C963.647 106.339 958.149 105.407 953.452 103.542C948.78 101.678 945.145 98.8106 942.549 94.9402C939.977 91.0463 938.679 86.0668 938.655 80.0017H957.346C957.464 82.22 958.019 84.0844 959.01 85.5948C960.001 87.1051 961.394 88.2497 963.187 89.0285C965.004 89.8073 967.164 90.1967 969.665 90.1967C971.766 90.1967 973.524 89.9371 974.94 89.4179C976.356 88.8987 977.43 88.1789 978.161 87.2585C978.893 86.3382 979.27 85.288 979.294 84.108C979.27 82.9988 978.905 82.0312 978.197 81.2052C977.512 80.3557 976.379 79.6005 974.798 78.9397C973.217 78.2553 971.081 77.6181 968.391 77.0281L961.169 75.4705C954.75 74.0781 949.688 71.7536 945.983 68.4968C942.302 65.2165 940.473 60.7444 940.496 55.0804C940.473 50.4785 941.7 46.4548 944.178 43.0092C946.679 39.5401 950.137 36.8379 954.55 34.9028C958.986 32.9676 964.072 32 969.807 32C975.66 32 980.722 32.9794 984.993 34.9382C989.265 36.8969 992.557 39.6581 994.87 43.2216C997.206 46.7616 998.386 50.9033 998.41 55.6468H979.577Z" fill="#FAFAFA"/>
<path d="M870.211 105.489V32.9912H889.893V62.3019H890.884L912.69 32.9912H935.629L911.132 65.2755L936.195 105.489H912.69L896.406 78.3025L889.893 86.7983V105.489H870.211Z" fill="#FAFAFA"/>
<path d="M803.624 105.489V32.9912H834.917C840.298 32.9912 845.006 33.9706 849.042 35.9293C853.077 37.8881 856.216 40.7083 858.458 44.3898C860.7 48.0714 861.821 52.4845 861.821 57.6292C861.821 62.8211 860.664 67.1988 858.352 70.7624C856.063 74.3259 852.841 77.0163 848.688 78.8335C844.558 80.6506 839.732 81.5592 834.209 81.5592H815.518V66.2667H830.245C832.557 66.2667 834.528 65.9835 836.156 65.4171C837.808 64.8271 839.071 63.8949 839.944 62.6205C840.841 61.3461 841.289 59.6824 841.289 57.6292C841.289 55.5524 840.841 53.8651 839.944 52.5671C839.071 51.2455 837.808 50.2779 836.156 49.6643C834.528 49.0271 832.557 48.7085 830.245 48.7085H823.306V105.489H803.624ZM846.103 72.2138L864.228 105.489H842.847L825.147 72.2138H846.103Z" fill="#FAFAFA"/>
<path d="M794.518 69.2402C794.518 77.3113 792.948 84.1198 789.81 89.6657C786.671 95.188 782.435 99.377 777.101 102.233C771.768 105.064 765.82 106.48 759.26 106.48C752.652 106.48 746.681 105.053 741.348 102.197C736.038 99.318 731.813 95.1172 728.675 89.5949C725.56 84.049 724.002 77.2641 724.002 69.2402C724.002 61.1691 725.56 54.3725 728.675 48.8501C731.813 43.3042 736.038 39.1153 741.348 36.2833C746.681 33.4278 752.652 32 759.26 32C765.82 32 771.768 33.4278 777.101 36.2833C782.435 39.1153 786.671 43.3042 789.81 48.8501C792.948 54.3725 794.518 61.1691 794.518 69.2402ZM774.269 69.2402C774.269 64.8979 773.691 61.2399 772.535 58.2664C771.402 55.2692 769.714 53.0037 767.472 51.4697C765.254 49.9121 762.517 49.1333 759.26 49.1333C756.003 49.1333 753.254 49.9121 751.012 51.4697C748.793 53.0037 747.106 55.2692 745.95 58.2664C744.817 61.2399 744.25 64.8979 744.25 69.2402C744.25 73.5826 744.817 77.2523 745.95 80.2495C747.106 83.223 748.793 85.4886 751.012 87.0461C753.254 88.5801 756.003 89.3471 759.26 89.3471C762.517 89.3471 765.254 88.5801 767.472 87.0461C769.714 85.4886 771.402 83.223 772.535 80.2495C773.691 77.2523 774.269 73.5826 774.269 69.2402Z" fill="#FAFAFA"/>
<path d="M638.238 105.489L616.857 32.9912H638.804L648.716 77.5945H649.283L661.035 32.9912H678.31L690.063 77.7361H690.629L700.541 32.9912H722.489L701.107 105.489H682.275L669.956 64.9923H669.389L657.07 105.489H638.238Z" fill="#FAFAFA"/>
</g>
<path d="M649.525 133.05H642.505V164.911H638.725V133.05H631.704V129.81H649.525V133.05Z" fill="#FAFAFA"/>
<path d="M622.242 155.191H626.022V158.161C626.022 160.501 625.302 162.355 623.862 163.723C622.422 165.055 620.19 165.721 617.165 165.721C614.141 165.721 611.891 165.055 610.415 163.723C608.939 162.355 608.201 160.501 608.201 158.161V136.56C608.201 134.22 608.921 132.384 610.361 131.052C611.801 129.684 614.033 129 617.057 129C620.082 129 622.332 129.684 623.808 131.052C625.284 132.384 626.022 134.22 626.022 136.56V141.69H622.242V136.56C622.242 135.192 621.81 134.13 620.946 133.374C620.117 132.618 618.821 132.24 617.057 132.24C615.329 132.24 614.051 132.618 613.223 133.374C612.395 134.13 611.981 135.192 611.981 136.56V158.161C611.981 159.493 612.395 160.555 613.223 161.347C614.087 162.103 615.401 162.481 617.165 162.481C618.893 162.481 620.171 162.103 621 161.347C621.828 160.555 622.242 159.493 622.242 158.161V155.191Z" fill="#FAFAFA"/>
<path d="M594.456 164.911V129.81H598.236V164.911H594.456Z" fill="#FAFAFA"/>
<path d="M551.898 164.911V129.81H566.749V133.05H555.678V145.471H564.589V148.711H555.678V164.911H551.898ZM574.309 129.81H578.089V161.671H587.971V164.911H574.309V129.81Z" fill="#FAFAFA"/>
<path d="M521.839 164.911V129.81H525.457L537.337 156.811V129.81H541.117V164.911H537.499L525.619 137.91V164.911H521.839Z" fill="#FAFAFA"/>
<path d="M481.068 155.191H484.848V158.161C484.848 160.501 484.128 162.355 482.688 163.723C481.248 165.055 479.015 165.721 475.991 165.721C472.967 165.721 470.717 165.055 469.241 163.723C467.765 162.355 467.027 160.501 467.027 158.161V136.56C467.027 134.22 467.747 132.384 469.187 131.052C470.627 129.684 472.859 129 475.883 129C478.907 129 481.158 129.684 482.634 131.052C484.11 132.384 484.848 134.22 484.848 136.56V141.69H481.068V136.56C481.068 135.192 480.635 134.13 479.771 133.374C478.943 132.618 477.647 132.24 475.883 132.24C474.155 132.24 472.877 132.618 472.049 133.374C471.221 134.13 470.807 135.192 470.807 136.56V158.161C470.807 159.493 471.221 160.555 472.049 161.347C472.913 162.103 474.227 162.481 475.991 162.481C477.719 162.481 478.997 162.103 479.825 161.347C480.653 160.555 481.068 159.493 481.068 158.161V155.191Z" fill="#FAFAFA"/>
<path d="M435.94 164.911V152.329L427.03 129.81H431.026L437.83 147.901L444.635 129.81H448.631L439.72 152.383V164.911H435.94Z" fill="#FAFAFA"/>
<path d="M411.97 129.81C414.85 129.81 416.992 130.494 418.396 131.862C419.836 133.194 420.556 135.03 420.556 137.37V140.61C420.556 143.67 419.278 145.633 416.722 146.497C419.638 147.289 421.096 149.287 421.096 152.491V157.351C421.096 159.691 420.394 161.545 418.99 162.913C417.586 164.245 415.426 164.911 412.51 164.911H403.816V129.81H411.97ZM416.776 137.37C416.776 136.038 416.362 134.994 415.534 134.238C414.742 133.446 413.554 133.05 411.97 133.05H407.596V145.201H411.97C413.59 145.201 414.796 144.768 415.588 143.904C416.38 143.04 416.776 141.942 416.776 140.61V137.37ZM417.316 152.491C417.316 151.159 416.902 150.061 416.074 149.197C415.282 148.333 414.094 147.901 412.51 147.901H407.596V161.671H412.51C414.13 161.671 415.336 161.293 416.128 160.537C416.92 159.745 417.316 158.683 417.316 157.351V152.491Z" fill="#FAFAFA"/>
<path d="M364.106 164.911V129.81H372.8C375.68 129.81 377.822 130.494 379.226 131.862C380.666 133.194 381.386 135.03 381.386 137.37V157.351C381.386 159.691 380.684 161.545 379.28 162.913C377.876 164.245 375.716 164.911 372.8 164.911H364.106ZM377.606 137.37C377.606 136.038 377.192 134.994 376.364 134.238C375.572 133.446 374.384 133.05 372.8 133.05H367.886V161.671H372.8C374.42 161.671 375.626 161.293 376.418 160.537C377.21 159.745 377.606 158.683 377.606 157.351V137.37Z" fill="#FAFAFA"/>
<path d="M350.335 155.191H354.115V158.161C354.115 160.501 353.395 162.355 351.955 163.723C350.515 165.055 348.283 165.721 345.259 165.721C342.235 165.721 339.985 165.055 338.509 163.723C337.033 162.355 336.295 160.501 336.295 158.161V136.56C336.295 134.22 337.015 132.384 338.455 131.052C339.895 129.684 342.127 129 345.151 129C348.175 129 350.425 129.684 351.901 131.052C353.377 132.384 354.115 134.22 354.115 136.56V148.441H340.075V158.161C340.075 159.493 340.489 160.555 341.317 161.347C342.181 162.103 343.495 162.481 345.259 162.481C346.987 162.481 348.265 162.103 349.093 161.347C349.921 160.555 350.335 159.493 350.335 158.161V155.191ZM340.075 145.2H350.335V136.56C350.335 135.192 349.903 134.13 349.039 133.374C348.211 132.618 346.915 132.24 345.151 132.24C343.423 132.24 342.145 132.618 341.317 133.374C340.489 134.13 340.075 135.192 340.075 136.56V145.2Z" fill="#FAFAFA"/>
<path d="M315.483 164.911V129.81H317.103L318.669 133.806C319.173 132.438 319.857 131.304 320.721 130.404C321.585 129.468 322.737 129 324.177 129C326.265 129 327.849 129.594 328.929 130.782C330.045 131.934 330.603 133.68 330.603 136.02V139.53H326.985V135.804C326.985 134.76 326.751 133.914 326.283 133.266C325.815 132.582 325.059 132.24 324.015 132.24C323.331 132.24 322.611 132.51 321.855 133.05C321.135 133.59 320.523 134.454 320.019 135.642C319.515 136.794 319.263 138.324 319.263 140.232V164.911H315.483Z" fill="#FAFAFA"/>
<path d="M301.713 155.191H305.493V158.161C305.493 160.501 304.773 162.355 303.333 163.723C301.893 165.055 299.661 165.721 296.636 165.721C293.612 165.721 291.362 165.055 289.886 163.723C288.41 162.355 287.672 160.501 287.672 158.161V136.56C287.672 134.22 288.392 132.384 289.832 131.052C291.272 129.684 293.504 129 296.528 129C299.553 129 301.803 129.684 303.279 131.052C304.755 132.384 305.493 134.22 305.493 136.56V148.441H291.452V158.161C291.452 159.493 291.866 160.555 292.694 161.347C293.558 162.103 294.872 162.481 296.636 162.481C298.365 162.481 299.643 162.103 300.471 161.347C301.299 160.555 301.713 159.493 301.713 158.161V155.191ZM291.452 145.2H301.713V136.56C301.713 135.192 301.281 134.13 300.417 133.374C299.589 132.618 298.293 132.24 296.528 132.24C294.8 132.24 293.522 132.618 292.694 133.374C291.866 134.13 291.452 135.192 291.452 136.56V145.2Z" fill="#FAFAFA"/>
<path d="M260.684 129.81H264.464V158.161C264.464 159.493 264.878 160.555 265.706 161.347C266.534 162.103 267.776 162.481 269.432 162.481C271.124 162.481 272.384 162.103 273.212 161.347C274.04 160.555 274.454 159.493 274.454 158.161V129.81H278.235V158.161C278.235 160.501 277.479 162.355 275.966 163.723C274.49 165.055 272.312 165.721 269.432 165.721C267.776 165.721 266.39 165.433 265.274 164.857C264.158 164.281 263.258 163.525 262.574 162.589C261.926 163.561 261.026 164.335 259.874 164.911C258.722 165.451 257.336 165.721 255.716 165.721C252.836 165.721 250.64 165.055 249.128 163.723C247.652 162.355 246.914 160.501 246.914 158.161V129.81H250.694V158.161C250.694 159.493 251.108 160.555 251.936 161.347C252.8 162.103 254.06 162.481 255.716 162.481C257.408 162.481 258.65 162.103 259.442 161.347C260.27 160.555 260.684 159.493 260.684 158.161V129.81Z" fill="#FAFAFA"/>
<path d="M237.476 158.161C237.476 160.501 236.72 162.355 235.208 163.723C233.732 165.055 231.446 165.721 228.35 165.721C225.254 165.721 222.932 165.055 221.383 163.723C219.871 162.355 219.115 160.501 219.115 158.161V136.56C219.115 134.22 219.853 132.384 221.329 131.052C222.842 129.684 225.146 129 228.242 129C231.338 129 233.642 129.684 235.154 131.052C236.702 132.384 237.476 134.22 237.476 136.56V158.161ZM233.696 136.56C233.696 135.192 233.246 134.13 232.346 133.374C231.446 132.618 230.078 132.24 228.242 132.24C226.442 132.24 225.092 132.618 224.192 133.374C223.328 134.13 222.896 135.192 222.896 136.56V158.161C222.896 159.493 223.346 160.555 224.246 161.347C225.146 162.103 226.514 162.481 228.35 162.481C230.15 162.481 231.482 162.103 232.346 161.347C233.246 160.555 233.696 159.493 233.696 158.161V136.56Z" fill="#FAFAFA"/>
<path d="M194.56 164.911V129.81H202.714C205.594 129.81 207.736 130.494 209.14 131.862C210.58 133.194 211.3 135.03 211.3 137.37V146.551C211.3 148.891 210.598 150.745 209.194 152.113C207.79 153.445 205.63 154.111 202.714 154.111H198.34V164.911H194.56ZM207.52 137.37C207.52 136.038 207.106 134.994 206.278 134.238C205.486 133.446 204.298 133.05 202.714 133.05H198.34V150.871H202.714C204.334 150.871 205.54 150.493 206.332 149.737C207.124 148.945 207.52 147.883 207.52 146.551V137.37Z" fill="#FAFAFA"/>
</g>
<defs>
<filter id="filter0_d_303_614" x="0" y="0" width="1033" height="213" filterUnits="userSpaceOnUse" color-interpolation-filters="sRGB">
<feFlood flood-opacity="0" result="BackgroundImageFix"/>
<feColorMatrix in="SourceAlpha" type="matrix" values="0 0 0 0 0 0 0 0 0 0 0 0 0 0 0 0 0 0 127 0" result="hardAlpha"/>
<feOffset dy="4"/>
<feGaussianBlur stdDeviation="2"/>
<feComposite in2="hardAlpha" operator="out"/>
<feColorMatrix type="matrix" values="0 0 0 0 0 0 0 0 0 0 0 0 0 0 0 0 0 0 0.25 0"/>
<feBlend mode="normal" in2="BackgroundImageFix" result="effect1_dropShadow_303_614"/>
<feBlend mode="normal" in="SourceGraphic" in2="effect1_dropShadow_303_614" result="shape"/>
</filter>
<filter id="filter1_d_303_614" x="190.56" y="32" width="812.841" height="85.1917" filterUnits="userSpaceOnUse" color-interpolation-filters="sRGB">
<feFlood flood-opacity="0" result="BackgroundImageFix"/>
<feColorMatrix in="SourceAlpha" type="matrix" values="0 0 0 0 0 0 0 0 0 0 0 0 0 0 0 0 0 0 127 0" result="hardAlpha"/>
<feOffset dy="4"/>
<feGaussianBlur stdDeviation="2"/>
<feComposite in2="hardAlpha" operator="out"/>
<feColorMatrix type="matrix" values="0 0 0 0 0 0 0 0 0 0 0 0 0 0 0 0 0 0 0.25 0"/>
<feBlend mode="normal" in2="BackgroundImageFix" result="effect1_dropShadow_303_614"/>
<feBlend mode="normal" in="SourceGraphic" in2="effect1_dropShadow_303_614" result="shape"/>
</filter>
<linearGradient id="paint0_linear_303_614" x1="48.4373" y1="83.8162" x2="111.888" y2="65.7367" gradientUnits="userSpaceOnUse">
<stop stop-color="#DD4652"/>
<stop offset="0.15" stop-color="#DD4854"/>
<stop offset="0.23" stop-color="#DE4F5B"/>
<stop offset="0.29" stop-color="#E15C67"/>
<stop offset="0.34" stop-color="#E46F78"/>
<stop offset="0.38" stop-color="#E9878F"/>
<stop offset="0.42" stop-color="#EEA5AB"/>
<stop offset="0.46" stop-color="#F5C8CC"/>
<stop offset="0.49" stop-color="#FCF0F1"/>
<stop offset="0.5" stop-color="#FEFDFD"/>
<stop offset="0.52" stop-color="#F7D4D8"/>
<stop offset="0.55" stop-color="#F1B0B7"/>
<stop offset="0.58" stop-color="#EB8F9A"/>
<stop offset="0.61" stop-color="#E67481"/>
<stop offset="0.64" stop-color="#E25E6D"/>
<stop offset="0.68" stop-color="#DF4D5E"/>
<stop offset="0.73" stop-color="#DD4153"/>
<stop offset="0.8" stop-color="#DC3A4D"/>
<stop offset="1" stop-color="#DC394C"/>
</linearGradient>
<linearGradient id="paint1_linear_303_614" x1="107.569" y1="12.2053" x2="11.6611" y2="39.2106" gradientUnits="userSpaceOnUse">
<stop stop-color="#8B3138" stop-opacity="0"/>
<stop offset="0.65" stop-color="#DC394C"/>
</linearGradient>
<linearGradient id="paint2_linear_303_614" x1="107.569" y1="189.634" x2="11.6864" y2="162.629" gradientUnits="userSpaceOnUse">
<stop stop-color="#8B3138" stop-opacity="0"/>
<stop offset="0.65" stop-color="#DC394C"/>
</linearGradient>
<linearGradient id="paint3_linear_303_614" x1="30.5598" y1="131.944" x2="125.396" y2="131.944" gradientUnits="userSpaceOnUse">
<stop stop-color="#8B3138" stop-opacity="0"/>
<stop offset="0.65" stop-color="#DC394C"/>
</linearGradient>
<linearGradient id="paint4_linear_303_614" x1="30.5847" y1="69.8189" x2="125.396" y2="69.8189" gradientUnits="userSpaceOnUse">
<stop stop-color="#8B3138" stop-opacity="0"/>
<stop offset="0.65" stop-color="#DC394C"/>
</linearGradient>
<linearGradient id="paint5_linear_303_614" x1="-48.1491" y1="140.528" x2="123.546" y2="139.131" gradientUnits="userSpaceOnUse">
<stop stop-color="#6A1921"/>
<stop offset="1" stop-color="#DC394C"/>
</linearGradient>
</defs>
</svg>
